<svg width="20" height="20" viewBox="0 0 20 20" fill="none" xmlns="http://www.w3.org/2000/svg">
<path d="M16.5947 9.25352C16.6419 8.94883 16.6658 8.641 16.6663 8.33268C16.6663 6.56457 15.964 4.86888 14.7137 3.61864C13.4635 2.36839 11.7678 1.66602 9.99967 1.66602C8.23156 1.66602 6.53587 2.36839 5.28563 3.61864C4.03539 4.86888 3.33301 6.56457 3.33301 8.33268C3.33301 12.4935 7.94884 16.8269 9.49884 18.1652C9.64324 18.2738 9.81901 18.3325 9.99967 18.3325C10.1803 18.3325 10.3561 18.2738 10.5005 18.1652C10.7329 17.9642 10.9618 17.7591 11.1872 17.5502" stroke="#007781" stroke-width="1.5" stroke-linecap="round" stroke-linejoin="round"/>
<path d="M10 10.834C11.3807 10.834 12.5 9.7147 12.5 8.33398C12.5 6.95327 11.3807 5.83398 10 5.83398C8.61929 5.83398 7.5 6.95327 7.5 8.33398C7.5 9.7147 8.61929 10.834 10 10.834Z" stroke="#007781" stroke-width="1.5" stroke-linecap="round" stroke-linejoin="round"/>
<path d="M13.333 15H18.333" stroke="#007781" stroke-width="1.5" stroke-linecap="round" stroke-linejoin="round"/>
<path d="M15.833 12.5V17.5" stroke="#007781" stroke-width="1.5" stroke-linecap="round" stroke-linejoin="round"/>
</svg>
