<svg width="24" height="25" viewBox="0 0 24 25" fill="none" xmlns="http://www.w3.org/2000/svg">
<path d="M14.2295 2.62109V5.98145H9.76953V2.62109H14.2295Z" fill="#007781" stroke="#007781"/>
<path d="M16.7305 2.63867C17.9624 2.71914 18.9614 3.08261 19.7148 3.66797C20.4276 4.22184 20.9485 4.99637 21.2373 5.98145H16.7305V2.63867Z" fill="#007781" stroke="#007781"/>
<path d="M21.5 8.48047V16.3105C21.5 18.031 20.9889 19.344 20.1064 20.2266C19.2239 21.1091 17.9108 21.62 16.1904 21.6201H7.80957C6.08922 21.62 4.77611 21.1091 3.89355 20.2266C3.01105 19.344 2.50002 18.031 2.5 16.3105V8.48047H21.5ZM12.6123 11.2285C11.7466 10.7226 10.8079 10.5984 10.0225 11.0557C9.23438 11.5041 8.87012 12.3901 8.87012 13.3809V15.7803C8.87012 16.771 9.23432 17.657 10.0225 18.1055L10.0254 18.1064C10.3523 18.2895 10.707 18.3808 11.0898 18.3809C11.5978 18.3809 12.1132 18.2163 12.6074 17.9355L12.6094 17.9336L14.6895 16.7334L14.6943 16.7305C15.538 16.2309 16.1297 15.5044 16.1299 14.5908C16.1299 13.6876 15.5607 12.9253 14.6885 12.4268H14.6875L12.6113 11.2285H12.6123Z" fill="#007781" stroke="#007781"/>
<path d="M7.27051 5.98145H2.76367C3.0525 4.99632 3.57332 4.22186 4.28613 3.66797C5.03952 3.08256 6.03857 2.7192 7.27051 2.63867V5.98145Z" fill="#007781" stroke="#007781"/>
</svg>
