<svg width="24" height="25" viewBox="0 0 24 25" fill="none" xmlns="http://www.w3.org/2000/svg">
<path d="M20.9795 11.0908C21.1133 11.0908 21.2295 11.207 21.2295 11.3408V15.832C21.2343 18.2392 20.7201 19.8393 19.7139 20.8467C18.7075 21.8541 17.1074 22.371 14.7002 22.3711H9.2998C6.88742 22.3711 5.28757 21.8538 4.28125 20.8467C3.27487 19.8392 2.7598 18.2389 2.75977 15.8311V11.3408C2.75977 11.207 2.87591 11.0908 3.00977 11.0908C3.14362 11.0908 3.25977 11.207 3.25977 11.3408V15.8311C3.25979 17.9108 3.62333 19.469 4.64258 20.4883C5.66187 21.5075 7.22003 21.8711 9.2998 21.8711H14.6895C16.7691 21.8711 18.3274 21.5074 19.3467 20.4883C20.3659 19.469 20.7295 17.9108 20.7295 15.8311V11.3408C20.7295 11.2071 20.8457 11.091 20.9795 11.0908Z" fill="#747474" stroke="#747474"/>
<path d="M9.67871 1.87109H14.3486C14.4638 1.87109 14.5601 1.94317 14.5918 2.05273L14.6016 2.10254L15.2715 8.78125C15.3679 9.74657 15.0781 10.6351 14.4658 11.3164C13.8227 11.9987 12.9594 12.3711 11.999 12.3711C11.033 12.3711 10.1706 11.9952 9.56055 11.3164C8.94851 10.6352 8.66042 9.74638 8.75684 8.78125L9.42676 2.10352C9.44077 1.97042 9.55236 1.87126 9.67871 1.87109ZM9.85156 2.82129L9.25195 8.8291C9.1683 9.62975 9.40628 10.403 9.92773 10.9756V10.9766C10.4642 11.5698 11.2471 11.8457 11.999 11.8457C12.751 11.8457 13.5339 11.5698 14.0703 10.9766L14.0723 10.9746C14.5901 10.3951 14.8304 9.62289 14.7461 8.82812L14.1465 2.82129L14.1016 2.37109H9.89648L9.85156 2.82129Z" fill="#747474" stroke="#747474"/>
<path d="M14.3096 1.87109H17.3604C18.768 1.87114 19.7018 2.16661 20.334 2.73535C20.9667 3.30466 21.3834 4.22493 21.582 5.66992V5.6709L21.8623 8.45117V8.45215C21.9684 9.49611 21.651 10.4746 20.9795 11.2158C20.3079 11.957 19.3638 12.3711 18.3096 12.3711C16.5379 12.3709 14.9413 10.927 14.7568 9.16113H14.7578L14.0576 2.15137C14.0518 2.08326 14.0743 2.00931 14.126 1.9502C14.1684 1.9017 14.23 1.8712 14.3096 1.87109ZM14.6426 2.9209L15.2627 9.11133V9.11328C15.4191 10.6143 16.7904 11.8709 18.3096 11.8711C19.2015 11.8711 20.0178 11.5284 20.6074 10.8906L20.6104 10.8867C21.193 10.2434 21.4498 9.39086 21.3682 8.50488L21.3672 8.5L21.0879 5.75L21.0869 5.74219L21.085 5.7334L21.0205 5.31445C20.853 4.36582 20.5709 3.62211 20.0166 3.11816C19.3773 2.537 18.4834 2.37113 17.3604 2.37109H14.5879L14.6426 2.9209Z" fill="#747474" stroke="#747474"/>
<path d="M6.58887 1.87109H9.63867C9.70191 1.87109 9.7726 1.89753 9.83398 1.96289C9.87443 2.00603 9.89894 2.06852 9.8916 2.15137L9.19141 9.15918C9.00774 10.9259 7.41106 12.3711 5.63867 12.3711C4.58461 12.371 3.6412 11.9569 2.96973 11.2158C2.29826 10.4746 1.98086 9.49611 2.08691 8.45215V8.4502L2.35449 5.71973C2.55717 4.24792 2.97714 3.31378 3.61426 2.73828C4.16839 2.23779 4.95251 1.94909 6.08301 1.88477L6.58887 1.87109ZM6.58887 2.37109C5.46698 2.37111 4.57274 2.53438 3.93164 3.11719C3.29705 3.69424 3.01616 4.58801 2.85352 5.75195L2.85156 5.77148L2.58105 8.50195C2.4878 9.39619 2.76009 10.2476 3.33887 10.8867C3.92093 11.5293 4.73908 11.871 5.63867 11.8711C7.15416 11.8711 8.54051 10.618 8.68652 9.11133L9.30664 2.9209L9.36133 2.37109H6.58887Z" fill="#747474" stroke="#747474"/>
<path d="M12 16.8711C12.9614 16.8711 13.6295 17.1334 14.0586 17.5625C14.4877 17.9916 14.75 18.6597 14.75 19.6211V22.1211C14.75 22.255 14.6339 22.3711 14.5 22.3711H9.5C9.36614 22.3711 9.25 22.255 9.25 22.1211V19.6211C9.25 18.6597 9.51227 17.9916 9.94141 17.5625C10.3705 17.1334 11.0386 16.8711 12 16.8711ZM12 17.3711C11.3241 17.3711 10.7199 17.4988 10.2988 17.9199C9.87775 18.341 9.75 18.9452 9.75 19.6211V21.8711H14.25V19.6211C14.25 18.9452 14.1223 18.341 13.7012 17.9199C13.2801 17.4988 12.6759 17.3711 12 17.3711Z" fill="#747474" stroke="#747474"/>
</svg>
